<?xml version="1.0" encoding="iso-8859-1"?>
<!-- Generator: Adobe Illustrator 16.0.0, SVG Export Plug-In . SVG Version: 6.00 Build 0)  -->
<!DOCTYPE svg PUBLIC "-//W3C//DTD SVG 1.1//EN" "http://www.w3.org/Graphics/SVG/1.1/DTD/svg11.dtd">
<svg version="1.1" id="Capa_1" xmlns="http://www.w3.org/2000/svg" xmlns:xlink="http://www.w3.org/1999/xlink" x="0px" y="0px"
	 width="21.268px" height="26.053px" viewBox="0 0 21.268 26.053" style="enable-background:new 0 0 21.268 26.053;"
	 xml:space="preserve">
<path d="M10.635,19.965C4.674,19.965,0,17.832,0,15.111v-3.061c0-0.436,0.131-0.875,0.381-1.309l0.494-0.855l0.49,0.855
	c0.855,1.473,4.312,2.973,9.27,2.973c4.955,0,8.414-1.5,9.268-2.973l0.492-0.852l0.492,0.85c0.254,0.434,0.381,0.875,0.381,1.311
	v3.061C21.268,17.832,16.6,19.965,10.635,19.965z M1.143,12.232v2.879c0,1.76,3.896,3.715,9.492,3.715s9.494-1.955,9.494-3.715
	v-2.879c-1.744,1.598-5.338,2.619-9.494,2.619C6.477,14.852,2.887,13.83,1.143,12.232z"/>
<path d="M10.635,26.053C4.674,26.053,0,23.922,0,21.199v-3.061c0-0.436,0.131-0.877,0.381-1.312l0.494-0.852l0.49,0.852
	c0.855,1.479,4.312,2.975,9.27,2.975c4.955,0,8.414-1.496,9.268-2.975l0.492-0.852l0.492,0.852c0.254,0.432,0.381,0.877,0.381,1.312
	v3.061C21.268,23.922,16.6,26.053,10.635,26.053z M1.143,18.318v2.881c0,1.756,3.896,3.715,9.492,3.715s9.494-1.959,9.494-3.715
	v-2.881c-1.744,1.6-5.338,2.621-9.494,2.621C6.477,20.939,2.887,19.92,1.143,18.318z"/>
<path d="M10.635,13.801C4.674,13.801,0,11.666,0,8.945V5.883c0-0.414,0.117-0.838,0.348-1.252l0.863-1.576l0.201,1.783
	c0.119,1.068,3.473,2.615,9.223,2.615c5.746,0,9.104-1.547,9.223-2.615l0.203-1.783l0.861,1.574c0.229,0.416,0.346,0.84,0.346,1.254
	v3.062C21.268,11.666,16.6,13.801,10.635,13.801z M1.143,6.396v2.549c0,1.754,3.896,3.717,9.492,3.717s9.494-1.963,9.494-3.717
	V6.396c-1.707,1.447-5.66,2.195-9.494,2.195S2.848,7.844,1.143,6.396z"/>
<path d="M10.635,7.623C5.605,7.623,0.26,6.287,0.26,3.811S5.605,0,10.635,0s10.379,1.334,10.379,3.811S15.664,7.623,10.635,7.623z
	 M10.635,1.141c-5.725,0-9.238,1.553-9.238,2.67c0,1.115,3.514,2.672,9.238,2.672s9.238-1.557,9.238-2.672
	C19.873,2.693,16.359,1.141,10.635,1.141z"/>
<g>
</g>
<g>
</g>
<g>
</g>
<g>
</g>
<g>
</g>
<g>
</g>
<g>
</g>
<g>
</g>
<g>
</g>
<g>
</g>
<g>
</g>
<g>
</g>
<g>
</g>
<g>
</g>
<g>
</g>
</svg>
