<?xml version="1.0" encoding="utf-8"?>
<!-- Generator: Adobe Illustrator 17.1.0, SVG Export Plug-In . SVG Version: 6.00 Build 0)  -->
<!DOCTYPE svg PUBLIC "-//W3C//DTD SVG 1.1//EN" "http://www.w3.org/Graphics/SVG/1.1/DTD/svg11.dtd">
<svg version="1.1" id="Capa_1" xmlns="http://www.w3.org/2000/svg" xmlns:xlink="http://www.w3.org/1999/xlink" x="0px" y="0px"
	 viewBox="0 0 24.7 24.7" enable-background="new 0 0 24.7 24.7" xml:space="preserve">
<g>
	<path fill="#333333" d="M24.7,12.3c0,6.8-5.6,12.4-12.4,12.3C5.4,24.6-0.1,19,0,12.1C0.1,5.4,5.7-0.1,12.6,0
		C19.2,0.1,24.7,5.4,24.7,12.3z M23.2,13.6c0.5-2.8-0.5-7.2-4.3-10C15,0.8,9.9,0.8,6.1,3.5c-3.9,2.8-5,7.2-4.5,10.3
		c1.2,0,2.3,0,3.4,0c-0.1-0.5-0.2-1.1-0.3-1.6c-0.2-1.6,0-3,1.1-4.3c0,0,0.1-0.2,0-0.2C5.6,6.9,5.7,6,5.9,5.2C6,4.6,6.1,4.5,6.7,4.6
		c0.9,0.2,1.7,0.6,2.5,1.1c0.1,0.1,0.2,0.1,0.4,0.1c1.8-0.5,3.6-0.5,5.4-0.1c0.1,0,0.3,0,0.4-0.1c0.5-0.3,1-0.5,1.5-0.8
		c0.4-0.2,0.9-0.3,1.4-0.3c0.1,0,0.2,0,0.3,0.2c0.3,0.9,0.4,1.7,0.2,2.6c0,0.2,0,0.3,0.1,0.4c0.6,0.7,1.1,1.4,1.2,2.3
		c0.1,0.7,0.1,1.4,0.1,2.2c0,0.5-0.1,1-0.2,1.5C21,13.7,22.1,13.7,23.2,13.6z M15.8,22.7c1.8-0.6,3.4-1.6,4.6-3
		c1.3-1.4,2.2-3.1,2.6-5c-0.1,0-0.1,0-0.2-0.1c-1-0.2-2-0.2-3-0.2c-0.1,0-0.1,0.1-0.2,0.2c-0.2,0.5-0.5,0.9-1,1.2
		c-0.8,0.7-1.7,1-2.7,1.2c-0.4,0.1-0.8,0.1-1.2,0.2c0.8,0.6,1,1.5,1,2.4c0,0.9,0,1.8,0,2.8C15.7,22.5,15.8,22.5,15.8,22.7z
		 M9.5,20.4c-0.4,0-0.8,0.1-1.3,0.1c-1.2,0-2-0.5-2.5-1.7c-0.2-0.6-0.6-1.2-1.2-1.5c-0.1-0.1-0.2-0.1-0.3-0.2
		c-0.2-0.2-0.1-0.3,0.1-0.4c0.2,0,0.4,0,0.6,0c0.6,0.1,1.1,0.5,1.4,1.1c0.7,1.1,1.6,1.4,2.8,1c0.3-0.1,0.4-0.2,0.5-0.5
		c0.1-0.5,0.4-0.8,0.8-1.1c-0.6-0.1-1.1-0.2-1.7-0.3c-1.4-0.4-2.6-1-3.3-2.3c0-0.1-0.2-0.1-0.2-0.1c-0.6,0-1.1,0-1.7,0.1
		c-0.6,0-1.1,0.1-1.7,0.2c0.3,3.2,4.6,7.6,7.7,8C9.5,22,9.5,21.2,9.5,20.4z M5.3,14.3c-0.1-0.4-0.1-0.4-0.5-0.4c-0.6,0-1.3,0-1.9,0
		c-0.4,0-0.8,0-1.3,0.1c0.1,0.3,0.1,0.5,0.1,0.7C2.9,14.5,4.1,14.4,5.3,14.3z M23.2,13.8c-0.2,0-0.3,0-0.5,0c-0.8,0-1.6,0-2.4,0.1
		c-0.4,0-0.4,0-0.5,0.4c1.1,0.1,2.2,0.1,3.3,0.2C23.1,14.3,23.1,14.1,23.2,13.8z M12.8,23.2c0-1.5,0-2.9,0-4.4c-0.2,0-0.2,0-0.4,0
		c0,1.5,0,2.9,0,4.4C12.5,23.2,12.7,23.2,12.8,23.2z M11.1,19C11.1,19,11.1,19,11.1,19c-0.1,0.1-0.2,0.2-0.2,0.3
		c-0.1,0.2-0.1,0.4-0.1,0.7c0,1,0,2,0,3.1c0.1,0,0.2,0,0.4,0C11.1,21.7,11.1,20.3,11.1,19z M14.1,19c0,1.4,0,2.7,0,4.1
		c0.2,0,0.3-0.1,0.4-0.1c0-1,0-2,0-3C14.5,19.6,14.4,19.3,14.1,19z M8,19.3c-0.1-0.1-0.2-0.1-0.3-0.1c-0.1,0-0.1,0.1-0.2,0.1
		c0.1,0,0.1,0.1,0.2,0.1C7.8,19.4,7.9,19.3,8,19.3z M8.4,19.5c0.1-0.1,0.1-0.1,0.2-0.2c-0.1,0-0.1-0.1-0.2-0.1
		c-0.1,0-0.1,0.1-0.2,0.1C8.3,19.3,8.3,19.4,8.4,19.5z M5.2,17c-0.1-0.1-0.2-0.1-0.3-0.1c-0.1,0-0.1,0.1-0.2,0.1
		c0.1,0,0.1,0.1,0.2,0.1C5,17.1,5,17,5.2,17z M5.5,17.1c-0.1,0.1-0.1,0.1-0.2,0.2c0.1,0,0.1,0.1,0.2,0.1c0.1,0,0.1-0.1,0.2-0.1
		C5.6,17.2,5.6,17.2,5.5,17.1z M9.1,19C9,19,8.9,19.1,8.9,19.2c0.1,0,0.1,0.1,0.2,0.1c0.1,0,0.1-0.1,0.2-0.1C9.2,19.1,9.2,19,9.1,19
		z M6.6,18.8c0.1-0.1,0.1-0.1,0.2-0.2c-0.1,0-0.1-0.1-0.2-0.1c-0.1,0-0.1,0.1-0.2,0.1C6.4,18.7,6.5,18.7,6.6,18.8z M7.3,19
		c-0.1-0.1-0.2-0.2-0.2-0.1C7,18.9,6.9,19,6.8,19c0.1,0,0.1,0.1,0.2,0.1C7.1,19.1,7.2,19.1,7.3,19z M5.9,17.9
		C6,17.8,6,17.7,6.1,17.7c-0.1,0-0.1-0.1-0.2-0.1c-0.1,0-0.1,0.1-0.2,0.1C5.7,17.7,5.8,17.8,5.9,17.9z M6.4,18.2
		C6.4,18.2,6.4,18.2,6.4,18.2C6.3,18.1,6.3,18,6.2,18c-0.1,0-0.1,0.1-0.2,0.1c0.1,0,0.1,0.1,0.2,0.1C6.2,18.3,6.3,18.2,6.4,18.2z"/>
</g>
</svg>
