<?xml version="1.0" encoding="utf-8"?>
<!-- Generator: Adobe Illustrator 17.1.0, SVG Export Plug-In . SVG Version: 6.00 Build 0)  -->
<!DOCTYPE svg PUBLIC "-//W3C//DTD SVG 1.1//EN" "http://www.w3.org/Graphics/SVG/1.1/DTD/svg11.dtd">
<svg version="1.1" id="Capa_1" xmlns="http://www.w3.org/2000/svg" xmlns:xlink="http://www.w3.org/1999/xlink" x="0px" y="0px"
	 viewBox="0 0 21.8 18.6" enable-background="new 0 0 21.8 18.6" xml:space="preserve">
<g>
	<path fill="#CDCCCC" d="M10.4,5.7c0.1-0.9,0.2-1.8,0.4-2.6c0.9-2.6,3.8-3.8,6.3-2.7c2.1,0.9,2.1,0.9,4.5,0.1
		c-0.7,0.9-1.2,1.6-1.8,2.4c0.7-0.1,1.2-0.3,2-0.4c-0.1,0.2-0.1,0.4-0.2,0.5C20,4,19.8,5.6,19.6,7.3c-1.1,8.9-11.7,14.1-19.4,9.5
		c-0.1,0-0.1-0.1-0.2-0.3c2.2-0.1,4.3-0.5,6.1-2.1c-2-0.4-3.4-1.2-4.1-3.1c0.5,0,1-0.1,1.9-0.2c-2.2-1-3.5-2.3-3.5-4.6
		c0.6,0.2,1.1,0.3,2,0.5C0.4,5.3-0.3,3.4,0.9,1C3.5,3.8,6.6,5.5,10.4,5.7z"/>
</g>
</svg>
